<?xml version="1.0" encoding="UTF-8" standalone="no"?>
<svg
   xmlns:dc="http://purl.org/dc/elements/1.1/"
   xmlns:cc="http://creativecommons.org/ns#"
   xmlns:rdf="http://www.w3.org/1999/02/22-rdf-syntax-ns#"
   xmlns:svg="http://www.w3.org/2000/svg"
   xmlns="http://www.w3.org/2000/svg"
   xmlns:sodipodi="http://sodipodi.sourceforge.net/DTD/sodipodi-0.dtd"
   xmlns:inkscape="http://www.inkscape.org/namespaces/inkscape"
   width="210mm"
   height="297mm"
   viewBox="0 0 210 297"
   version="1.1"
   id="svg8"
   inkscape:version="1.0.2-2 (e86c870879, 2021-01-15)"
   sodipodi:docname="corbata final.svg">
  <defs
     id="defs2" />
  <sodipodi:namedview
     id="base"
     pagecolor="#ffffff"
     bordercolor="#666666"
     borderopacity="1.0"
     inkscape:pageopacity="0.0"
     inkscape:pageshadow="2"
     inkscape:zoom="0.35"
     inkscape:cx="400"
     inkscape:cy="560"
     inkscape:document-units="mm"
     inkscape:current-layer="layer1"
     inkscape:document-rotation="0"
     showgrid="false"
     inkscape:window-width="1920"
     inkscape:window-height="1001"
     inkscape:window-x="-9"
     inkscape:window-y="-9"
     inkscape:window-maximized="1" />
  <metadata
     id="metadata5">
    <rdf:RDF>
      <cc:Work
         rdf:about="">
        <dc:format>image/svg+xml</dc:format>
        <dc:type
           rdf:resource="http://purl.org/dc/dcmitype/StillImage" />
        <dc:title></dc:title>
      </cc:Work>
    </rdf:RDF>
  </metadata>
  <g
     inkscape:label="Capa 1"
     inkscape:groupmode="layer"
     id="layer1">
    <path
       style="fill:#000000;stroke-width:0.422866"
       d="m 96.305698,250.9629 c -1.280673,-0.8465 -34.233511,-37.21295 -34.768976,-38.37072 -0.372298,-0.80499 -0.337823,-1.99535 0.165317,-5.7083 0.349637,-2.58017 4.426503,-32.29027 9.059698,-66.02245 L 79.185731,79.530184 76.431218,71.719001 C 74.916237,67.422855 73.612461,63.830943 73.53394,63.736982 73.45542,63.643012 72.928625,64.202241 72.363288,64.979698 70.972016,66.892996 68.834612,67.613614 66.8248,66.84698 65.120834,66.197009 63.145232,63.943896 55.273343,53.672923 48.270179,44.535427 43.042882,36.900728 41.507471,33.567247 40.478927,31.334214 40.17888,30.08654 40.058485,27.541968 39.865061,23.454051 40.838887,21.206882 43.46971,19.670316 l 1.75236,-1.02349 h 52.50915 52.50913 l 1.75237,1.02349 c 2.63082,1.536566 3.60464,3.783735 3.41123,7.871652 -0.12035,2.544572 -0.42045,3.792246 -1.449,6.025279 -1.53965,3.342706 -6.77918,10.998857 -13.75942,20.105676 -8.10114,10.569224 -9.87782,12.578172 -11.6749,13.201218 -2.05946,0.714 -4.02972,0.01956 -5.4376,-1.916592 -0.55648,-0.765274 -1.07602,-1.314529 -1.15454,-1.220567 -0.0786,0.09397 -1.38254,3.686536 -2.89781,7.983501 l -2.75503,7.812668 9.06515,66.010309 c 7.59285,55.28926 8.98796,66.17724 8.58983,67.03805 -0.5388,1.165 -33.48587,37.53003 -34.773903,38.38139 -0.459727,0.30387 -1.101199,0.55249 -1.425507,0.55249 -0.324323,0 -0.965794,-0.24862 -1.425522,-0.55249 z m -2.505511,-13.23355 c 0,-0.0945 -0.309561,-0.45267 -0.687932,-0.79604 -0.623487,-0.56583 -0.637389,-0.54973 -0.148421,0.17174 0.513549,0.75773 0.836353,0.99869 0.836353,0.6243 z M 123.0052,188.98298 c 0.15272,0.13502 0.18761,0.10714 0.0775,-0.0619 -0.11014,-0.16908 0.18111,-0.77702 0.64708,-1.351 0.82218,-1.01272 0.83254,-1.16815 0.34987,-5.25522 -0.27356,-2.31641 -0.5673,-4.42249 -0.65275,-4.68019 -0.0854,-0.2577 -9.02997,9.80829 -19.87668,22.36884 -10.846716,12.56056 -19.910087,22.71325 -20.140843,22.56154 -0.230744,-0.15172 -0.28525,-0.1047 -0.121154,0.10449 0.164122,0.20918 -0.09161,0.8608 -0.568404,1.44804 l -0.866829,1.06771 2.330402,2.72508 2.330389,2.72508 18.106849,-20.94897 c 9.95877,-11.52193 18.23179,-20.8385 18.3845,-20.70348 z m -48.310975,27.15948 c 0.111349,-0.20849 -0.04732,-0.37907 -0.35261,-0.37907 -0.305286,0 -0.463963,0.17058 -0.352609,0.37907 0.111349,0.20849 0.270026,0.37907 0.352609,0.37907 0.08258,0 0.241259,-0.17058 0.35261,-0.37907 z M 93.58947,171.05683 c 13.3823,-15.49849 24.46595,-28.08289 24.63034,-27.96532 0.36756,0.26286 0.1734,-2.64654 -0.45144,-6.76447 -0.258,-1.70037 -0.64172,-3.025 -0.85269,-2.94362 -0.68904,0.26578 -45.898191,52.78867 -46.076769,53.53087 -0.09555,0.39715 -0.46,2.87141 -0.809878,5.49837 -0.349873,2.62696 -0.720093,5.23685 -0.822708,5.79978 -0.102618,0.56292 -0.132961,1.02348 -0.06744,1.02348 0.06552,0 11.068284,-12.68058 24.450585,-28.17909 z M 79.365945,136.13842 c 0.656336,-0.80337 1.3422,-1.35421 1.524148,-1.22409 0.181947,0.13013 0.330811,-0.0389 0.330811,-0.3756 0,-0.3367 6.987405,-8.67493 15.527557,-18.5294 9.456599,-10.91195 15.527549,-18.251937 15.527549,-18.77334 0,-1.009471 -0.78326,-7.112882 -1.03224,-8.043493 -0.12573,-0.469781 -0.51405,-0.260348 -1.43723,0.77506 -0.69576,0.780335 -1.39769,1.428236 -1.55983,1.439781 -0.16216,0.01155 -0.25061,0.09187 -0.19656,0.178519 0.24985,0.400485 -1.02494,1.618034 -1.42039,1.356625 -0.24576,-0.162449 -0.31057,-0.121914 -0.14402,0.09008 0.40674,0.517704 -2.47682,3.892987 -3.02015,3.53517 -0.23512,-0.154842 -0.29122,-0.108085 -0.12464,0.10391 0.39472,0.502414 -2.47211,3.902908 -2.98261,3.537808 -0.21448,-0.15339 -0.28151,-0.0758 -0.14896,0.17236 0.27648,0.51765 -2.584607,3.92415 -2.994274,3.56509 -0.148541,-0.13018 -0.178024,-0.0961 -0.06555,0.0758 0.32083,0.49018 -2.639922,3.77736 -3.118427,3.46225 -0.235122,-0.15485 -0.291227,-0.1081 -0.124646,0.10386 0.394731,0.50241 -2.472107,3.9029 -2.982606,3.53781 -0.214478,-0.15338 -0.278346,-0.0699 -0.141947,0.18549 0.228084,0.42703 -1.189969,2.32337 -1.543666,2.06434 -0.08543,-0.0625 -0.170328,0.0398 -0.188716,0.22743 -0.06998,0.7144 -0.8592,1.45596 -1.251151,1.17565 -0.225115,-0.161 -0.297687,-0.0838 -0.161288,0.17165 0.258789,0.48452 -0.820059,1.86194 -1.50239,1.9182 -0.216211,0.0179 -0.39582,0.18595 -0.399124,0.37358 -0.01343,0.75029 -0.662962,1.47533 -1.064638,1.18807 -0.234732,-0.16787 -0.315108,-0.0963 -0.178655,0.15923 0.228071,0.42703 -1.189983,2.32337 -1.54368,2.06434 -0.08543,-0.0626 -0.11108,-0.0429 -0.05695,0.0438 0.249843,0.40049 -1.024934,1.61803 -1.420404,1.35662 -0.24576,-0.16244 -0.311052,-0.12247 -0.145089,0.0888 0.165948,0.2113 -0.23382,1.02357 -0.888382,1.80505 -1.056286,1.26109 -1.277171,2.03175 -1.964274,6.85318 -0.725766,5.09273 -0.995603,9.01449 -0.514611,7.47928 0.117582,-0.37528 0.750774,-1.33962 1.407111,-2.143 z M 74.084299,46.849658 c 3.034054,-6.379754 5.624522,-11.927453 5.756596,-12.328221 0.191122,-0.579954 -0.185088,-0.829832 -1.843367,-1.224348 -20.124878,-4.787857 -31.138006,-7.372113 -31.417164,-7.372113 -0.910693,0 -0.252301,3.129525 1.199191,5.700104 3.273428,5.797204 19.930288,27.876675 20.501584,27.175835 0.157686,-0.193438 2.769103,-5.571504 5.80316,-11.951257 z m 61.510961,1.884282 c 5.6376,-7.330132 10.8251,-14.67266 12.4013,-17.55313 1.18276,-2.161465 1.68948,-5.255834 0.86066,-5.255834 -0.60281,0 -33.20086,7.763736 -33.35708,7.944507 -0.18354,0.212389 -0.1923,0.193193 6.32807,13.859253 l 5.51975,11.56886 1.91219,-2.406429 c 1.05171,-1.323536 3.90251,-4.994288 6.33511,-8.157227 z"
       id="path24" />
  </g>
</svg>
