<?xml version="1.0" encoding="UTF-8" standalone="no"?>
<svg
   xmlns:dc="http://purl.org/dc/elements/1.1/"
   xmlns:cc="http://creativecommons.org/ns#"
   xmlns:rdf="http://www.w3.org/1999/02/22-rdf-syntax-ns#"
   xmlns:svg="http://www.w3.org/2000/svg"
   xmlns="http://www.w3.org/2000/svg"
   xmlns:sodipodi="http://sodipodi.sourceforge.net/DTD/sodipodi-0.dtd"
   xmlns:inkscape="http://www.inkscape.org/namespaces/inkscape"
   width="210mm"
   height="297mm"
   viewBox="0 0 210 297"
   version="1.1"
   id="svg8"
   inkscape:version="1.0.2-2 (e86c870879, 2021-01-15)"
   sodipodi:docname="imperio romano.svg">
  <defs
     id="defs2" />
  <sodipodi:namedview
     id="base"
     pagecolor="#ffffff"
     bordercolor="#666666"
     borderopacity="1.0"
     inkscape:pageopacity="0.0"
     inkscape:pageshadow="2"
     inkscape:zoom="0.35"
     inkscape:cx="400"
     inkscape:cy="560"
     inkscape:document-units="mm"
     inkscape:current-layer="layer1"
     inkscape:document-rotation="0"
     showgrid="false"
     inkscape:window-width="1920"
     inkscape:window-height="1001"
     inkscape:window-x="-9"
     inkscape:window-y="-9"
     inkscape:window-maximized="1" />
  <metadata
     id="metadata5">
    <rdf:RDF>
      <cc:Work
         rdf:about="">
        <dc:format>image/svg+xml</dc:format>
        <dc:type
           rdf:resource="http://purl.org/dc/dcmitype/StillImage" />
        <dc:title></dc:title>
      </cc:Work>
    </rdf:RDF>
  </metadata>
  <g
     inkscape:label="Capa 1"
     inkscape:groupmode="layer"
     id="layer1">
    <path
       style="fill:#000000;stroke-width:0.142626"
       d="m 98.324236,150.7738 c -0.40497,-0.027 -0.73631,-0.10635 -0.73631,-0.17626 0,-0.15518 2.489514,-0.01 2.704974,0.15806 0.14534,0.11316 -0.461974,0.11878 -1.968664,0.0182 z m 2.559844,0.002 c 0.23563,-0.0302 0.58441,-0.0294 0.77506,0.002 0.19065,0.0311 -0.002,0.0558 -0.42841,0.0549 -0.42628,-10e-4 -0.58227,-0.0265 -0.34665,-0.0566 z m 1.85802,-0.002 c 0.40497,-0.027 1.06765,-0.027 1.47262,0 0.40497,0.027 0.0736,0.0491 -0.73631,0.0491 -0.80995,0 -1.14128,-0.0221 -0.73631,-0.0491 z m 3.83656,-0.0358 c 0.87939,-0.13964 3.24106,-0.16026 2.9918,-0.0261 -0.10228,0.055 -0.97422,0.10835 -1.93766,0.11848 -1.35172,0.0142 -1.59242,-0.007 -1.05414,-0.0924 z m -9.765794,-0.13022 -0.54255,-0.0967 0.5813,-0.0173 c 0.31972,-0.01 0.5813,0.0418 0.5813,0.11395 0,0.0722 -0.0174,0.12346 -0.0387,0.11396 -0.0213,-0.01 -0.2829,-0.0608 -0.5813,-0.11396 z m -2.63522,-0.20638 c -2.28643,-0.30155 -3.24138,-0.45402 -3.59443,-0.5739 l -0.35839,-0.12169 0.38753,-0.006 c 0.21314,-0.003 0.94558,0.0886 1.62763,0.20383 0.68206,0.11526 1.65864,0.23718 2.17018,0.27093 0.87451,0.0577 1.3521,0.20461 1.05984,0.326 -0.0714,0.0296 -0.65293,-0.0151 -1.29236,-0.0994 z m 17.361424,0.0985 c 0,-0.0708 0.43597,-0.16823 0.96883,-0.21646 0.53286,-0.0482 1.47162,-0.17213 2.08614,-0.27534 1.25612,-0.21097 2.043,-0.24434 1.82018,-0.0772 -0.081,0.0608 -1.01921,0.21161 -2.08492,0.33523 -1.06571,0.12361 -2.12949,0.25575 -2.36394,0.29364 -0.23446,0.0379 -0.42629,0.011 -0.42629,-0.0599 z m -21.779284,-0.81069 c -0.29582,-0.10761 -0.29404,-0.1132 0.0388,-0.122 0.19183,-0.005 0.34878,0.0498 0.34878,0.122 0,0.0722 -0.0174,0.12708 -0.0387,0.12201 -0.0213,-0.005 -0.17827,-0.06 -0.34878,-0.12201 z m 27.824784,0.0364 c 0,-0.12102 0.73683,-0.31462 2.40269,-0.63128 2.17197,-0.41286 3.10329,-0.62364 3.24752,-0.73497 0.081,-0.0625 0.27395,-0.11368 0.4288,-0.11368 0.29894,0 3.15632,-0.84648 5.85697,-1.73509 2.42762,-0.79878 7.79875,-3.09516 10.13153,-4.33166 9.20807,-4.88076 17.06982,-11.58903 22.72696,-19.39245 1.23999,-1.71045 4.81033,-7.65696 4.80986,-8.01099 -1.4e-4,-0.11188 0.0637,-0.25951 0.14188,-0.32808 0.14119,-0.12383 1.1174,-2.44027 2.11096,-5.00908 0.28531,-0.73766 0.66349,-1.91873 0.8404,-2.6246 0.39258,-1.5664 0.75685,-2.58744 0.77144,-2.16229 0.0123,0.35864 -0.41492,2.07902 -0.60932,2.45366 -0.25344,0.48839 -0.63933,1.79933 -0.55153,1.87365 0.048,0.0406 -0.005,0.19666 -0.11879,0.34678 -0.11331,0.15011 -0.29657,0.5682 -0.40724,0.92908 -0.24098,0.78579 -0.86657,2.33947 -1.16247,2.88706 -0.11701,0.21653 -0.4692,0.92517 -0.78266,1.57476 -0.31345,0.64959 -0.8025,1.66004 -1.08677,2.24544 -0.68857,1.41797 -1.83571,3.22995 -3.59069,5.67172 -0.79528,1.10649 -1.44596,2.03396 -1.44596,2.06104 0,0.0841 -0.78683,1.03554 -0.91622,1.10786 -0.0674,0.0377 -0.31261,0.32536 -0.54494,0.63932 -2.2639,3.05928 -7.62022,7.90559 -12.81411,11.59398 -1.14702,0.81455 -2.92808,1.94241 -3.06735,1.94241 -0.0724,0 -0.298,0.13661 -0.50146,0.30358 -0.36328,0.29814 -2.32145,1.3611 -5.27178,2.86171 -1.68576,0.85742 -4.82166,2.2556 -5.40648,2.41054 -0.21314,0.0565 -0.87582,0.29313 -1.47262,0.52591 -3.22527,1.25798 -10.40507,3.24248 -12.86605,3.55619 -0.34103,0.0435 -0.67237,0.10621 -0.73631,0.13942 -0.064,0.0332 -0.11626,0.0107 -0.11626,-0.0499 z m -29.607434,-0.29809 c -0.92358,-0.26155 -3.744,-0.9457 -4.06569,-0.98622 -0.19369,-0.0244 -0.73582,-0.16069 -1.20474,-0.30286 -0.46891,-0.14218 -1.44134,-0.42295 -2.16095,-0.62393 -0.71961,-0.20097 -1.714741,-0.53205 -2.211401,-0.73573 -0.49666,-0.20367 -0.93743,-0.37032 -0.97948,-0.37032 -0.51828,0 -6.42047,-2.44941 -7.82425,-3.24708 -0.38366,-0.218 -0.9417,-0.50942 -1.2401,-0.64759 -0.2984,-0.13818 -1.04305,-0.529 -1.65478,-0.86849 -0.61173,-0.3395 -1.16528,-0.61726 -1.23012,-0.61726 -0.0648,0 -0.43629,-0.22614 -0.82543,-0.50253 -0.38914,-0.27639 -0.9168,-0.61262 -1.17257,-0.74718 -0.78776,-0.41445 -4.8829,-3.22822 -4.8829,-3.35504 0,-0.0657 -0.0687,-0.11953 -0.15267,-0.11953 -0.46813,0 -5.73256,-4.59828 -7.81254,-6.82396 -0.57334,-0.6135 -1.19001,-1.26309 -1.37038,-1.44353 -0.18037,-0.18044 -0.74514,-0.85955 -1.25506,-1.50914 -0.50992,-0.64959 -1.0561,-1.28672 -1.21374,-1.41584 -0.15763,-0.12912 -0.2866,-0.28733 -0.2866,-0.35158 0,-0.0642 -0.40462,-0.63772 -0.89915,-1.27438 -0.49453,-0.63666 -1.09526,-1.48235 -1.33496,-1.87933 -0.23969,-0.39697 -0.52426,-0.81034 -0.63237,-0.91861 -0.40082,-0.40139 -2.88733,-4.90401 -3.7322,-6.75834 -0.8214,-1.80282 -2.24968,-5.51758 -2.44712,-6.36465 -0.0421,-0.18044 -0.21379,-0.77098 -0.38162,-1.3123 -0.16783,-0.54132 -0.34448,-1.22044 -0.39255,-1.50914 -0.16643,-0.99954 0.17624,-0.14416 0.81484,2.03406 0.63829,2.17712 1.01877,3.24465 1.84752,5.18358 0.53527,1.25233 0.61058,1.41846 0.95178,2.09968 0.1446,0.28871 0.30937,0.68211 0.36616,0.87424 0.19527,0.66066 3.3054,5.89958 4.17328,7.02976 0.23446,0.30532 0.42628,0.60329 0.42628,0.66217 0,0.12273 1.99138,2.67829 3.07157,3.94179 4.86748,5.69349 12.00419,11.45739 18.32019,14.79616 0.63943,0.33802 1.44162,0.77417 1.78265,0.96922 1.17123,0.66988 8.06277,3.68115 8.42464,3.68115 0.12071,0 0.43698,0.11234 0.70281,0.24964 0.26583,0.1373 1.25065,0.4691 2.188471,0.73733 0.93783,0.26824 1.7749,0.53283 1.86016,0.58798 0.22759,0.14723 3.71208,1.03018 4.8829,1.23731 1.68533,0.29814 2.33897,0.47467 2.24321,0.60585 -0.10533,0.14428 -0.16632,0.14381 -0.69309,-0.005 z m 1.05603,0.0408 c 0.1119,-0.0379 0.2456,-0.0332 0.29711,0.0104 0.0515,0.0436 -0.0401,0.0746 -0.20346,0.0689 -0.18058,-0.006 -0.21731,-0.0374 -0.0936,-0.0793 z m 10.10489,-1.31081 c -18.1721,-1.10188 -34.694151,-8.35283 -46.296931,-20.3181 -4.88283,-5.03538 -8.80873,-11.04098 -11.32373,-17.32236 -4.40674,-11.006132 -4.58045,-23.241342 -0.48814,-34.382242 3.17847,-8.65306 9.14678,-16.84571 16.9743,-23.30046 8.00508,-6.601178 18.13446,-11.467008 28.810991,-13.839868 6.29072,-1.39811 10.95816,-1.8434 18.175084,-1.73397 4.98122,0.0755 7.25134,0.27441 11.69669,1.02472 14.7554,2.49049 28.5002,9.67948 38.11785,19.936908 7.47655,7.97392 12.18746,17.46041 13.68507,27.55807 0.31104,2.09715 0.58358,6.6882 0.48733,8.20919 -0.0409,0.64556 -0.1157,1.82334 -0.16633,2.61728 -0.42008,6.587392 -2.80468,14.153302 -6.42209,20.376152 -2.21616,3.81237 -4.81501,7.29629 -7.85379,10.5285 -2.08384,2.2165 -7.25117,6.60574 -9.82257,8.34352 -10.80701,7.30349 -22.91491,11.39554 -36.26521,12.25638 -1.89397,0.12212 -7.59064,0.15045 -9.308524,0.0463 z m 9.455774,-0.30688 c 8.77305,-0.64803 16.41234,-2.44403 23.9869,-5.63934 15.37243,-6.48481 27.11883,-17.8753 32.6169,-31.62862 2.40329,-6.01179 3.45042,-11.479822 3.44288,-17.978502 -0.005,-4.59381 -0.4093,-7.7628 -1.53906,-12.07316 -4.47846,-17.0867 -18.5964,-31.56262 -37.6034,-38.556868 -9.09833,-3.34803 -19.40871,-4.94236 -29.06758,-4.49482 -9.559924,0.44296 -17.794424,2.27342 -26.094445,5.80056 -6.45209,2.74185 -11.81383,6.016588 -16.82069,10.273418 -6.4486,5.4826 -11.22487,11.62948 -14.54105,18.71378 -2.96712,6.33862 -4.36239,12.26913 -4.55314,19.35286 -0.14529,5.39565 0.47996,9.888332 2.11855,15.222682 4.45412,14.50014 15.79184,26.88523 31.31612,34.20906 7.895211,3.7247 16.485931,5.97938 25.654611,6.73319 2.497544,0.20534 8.695894,0.24211 11.083404,0.0658 z m -10.451254,-9.32495 c -2.57652,-0.22422 -6.18675,-0.77812 -8.4603,-1.29802 -3.52557,-0.80621 -6.08914,-1.61404 -9.45163,-2.97839 -3.883331,-1.57569 -7.248611,-3.36204 -10.622511,-5.63862 -2.06673,-1.39455 -6.5416,-5.16251 -8.16297,-6.87344 -6.35606,-6.70713 -10.27242,-14.3588 -11.68715,-22.834012 -0.33627,-2.01445 -0.47955,-8.36414 -0.23599,-10.45835 1.0093,-8.6785 4.58133,-16.52481 10.61355,-23.31367 8.10741,-9.12435 19.640631,-15.31968 32.646961,-17.537068 16.418324,-2.79909 33.422184,0.96456 46.038774,10.190258 10.27409,7.51278 16.77221,17.74759 18.53178,29.18832 0.34498,2.24306 0.46621,7.00496 0.23758,9.33189 -0.60835,6.191382 -2.39426,11.624942 -5.60449,17.051442 -6.04146,10.21234 -16.61872,18.33885 -29.0699,22.33438 -4.2773,1.37257 -7.65208,2.1048 -12.3024,2.66925 -1.94929,0.2366 -10.37191,0.34874 -12.471304,0.16603 z m 10.141224,-0.25769 c 7.65365,-0.5776 15.58366,-2.72184 22.35557,-6.04486 13.62202,-6.68442 23.33202,-18.56051 26.00879,-31.81078 1.0598,-5.246132 0.99984,-11.007662 -0.16839,-16.179942 -3.16798,-14.02615 -13.83499,-26.02617 -28.75777,-32.35152 -6.0874,-2.58028 -11.90909,-4.029578 -18.89565,-4.704048 -2.54464,-0.24565 -8.52368,-0.21028 -11.238424,0.0665 -15.45055,1.575198 -28.860101,8.258728 -37.882001,18.880998 -5.4915,6.46562 -8.93736,14.34608 -9.86816,22.56782 -0.24446,2.15937 -0.1111,7.87997 0.23194,9.94859 3.12782,18.862062 18.97925,33.880362 40.602011,38.468022 2.11894,0.44957 5.73933,0.98416 7.76878,1.14714 2.016214,0.16193 7.764324,0.16898 9.843304,0.0121 z m -5.3326,-2.63638 c -1.07559,-0.80152 -1.36875,-1.38282 -1.44794,-2.87108 -0.0488,-0.91752 0.0395,-1.82825 0.33434,-3.44929 0.43636,-2.39862 0.48162,-2.90757 0.24766,-2.78516 -0.3947,0.20651 -3.476024,3.86056 -4.557824,5.40497 -1.29492,1.84869 -1.64803,2.07358 -1.64086,1.04509 0.009,-1.24319 0.74273,-2.75387 2.99396,-6.16149 1.237094,-1.87255 1.707364,-2.71271 1.579144,-2.82126 -0.11092,-0.0939 -2.113814,0.69387 -3.569304,1.40387 -0.94061,0.45883 -1.77771,1.05656 -3.46611,2.47495 -1.22431,1.02852 -2.28808,1.87003 -2.36395,1.87003 -0.21585,0 -0.15915,-0.26927 0.22173,-1.05298 0.53157,-1.09377 1.32407,-2.02636 3.47663,-4.09122 2.33127,-2.23629 3.15502,-3.16098 3.83939,-4.30985 0.79648,-1.33708 1.1713,-2.44217 1.26809,-3.7388 0.0883,-1.18281 0.0872,-1.18766 -0.54547,-2.29652 -0.78701,-1.3795 -1.48732,-3.17809 -1.82432,-4.68537 l -0.25714,-1.15012 -0.68094,0.55772 c -0.63802,0.52257 -0.73695,0.55798 -1.56954,0.56172 l -0.8886,0.004 -1.6588,2.35815 -1.6588,2.35816 h 0.61744 c 0.3396,0 0.86787,-0.0886 1.17394,-0.19685 1.19966,-0.42434 2.09024,-0.19901 3.03759,0.76857 0.47847,0.4887 0.5813,0.69643 0.5813,1.17437 0,0.94729 -0.84491,1.63487 -1.24034,1.00937 -0.16529,-0.26147 -0.16848,-0.26137 -0.61712,0.0194 -0.4026,0.25199 -0.55581,0.2707 -1.42818,0.17439 -1.4338,-0.15828 -2.10047,-0.11005 -3.22368,0.23321 -1.18815,0.36311 -1.54957,0.73598 -2.04098,2.10561 -0.27745,0.77331 -0.30965,1.09022 -0.21807,2.14638 l 0.10744,1.23911 -0.6687,0.58095 c -0.36778,0.31952 -0.83095,0.75963 -1.02926,0.97801 -0.19831,0.21839 -0.48396,0.39707 -0.63478,0.39707 -0.32897,0 -0.70773,-0.34048 -0.86583,-0.77835 -0.0634,-0.17548 -0.24574,-0.50027 -0.40529,-0.72177 -0.18409,-0.25557 -0.29029,-0.6499 -0.29066,-1.07925 -4.7e-4,-0.58136 0.0757,-0.75389 0.54195,-1.22628 0.33713,-0.34161 0.65545,-0.88041 0.84077,-1.42314 0.52668,-1.54245 0.52887,-1.57911 0.0996,-1.67031 -0.55826,-0.11862 -1.31111,0.13642 -2.16403,0.73309 -0.99585,0.69667 -1.44783,0.78008 -2.45466,0.453 -0.31991,-0.10393 -0.58519,0.49004 -0.47518,1.06394 l 0.0933,0.48649 -0.605101,-0.0946 c -0.33281,-0.0521 -0.76793,-0.22272 -0.96694,-0.37927 -0.33914,-0.26679 -0.35858,-0.3642 -0.31002,-1.55353 0.0433,-1.06113 0.10795,-1.33312 0.39476,-1.6612 0.28906,-0.33066 0.30889,-0.41625 0.12622,-0.54459 -0.43133,-0.30305 -0.44236,-0.89688 -0.0301,-1.61767 0.21449,-0.37497 0.42862,-0.83457 0.47586,-1.02133 0.0472,-0.18675 0.23196,-0.49679 0.410521,-0.68895 0.40337,-0.43414 1.33783,-0.47776 2.06656,-0.0965 0.59924,0.31353 2.46035,0.75797 3.65197,0.8721 1.08581,0.104 2.42908,-0.18716 2.90103,-0.6288 0.17595,-0.16466 0.9365,-1.34149 1.6901,-2.61518 l 1.37019,-2.31579 -0.49593,-0.35328 c -0.77057,-0.54891 -0.69287,-1.05166 0.50505,-3.26793 1.18249,-2.18771 1.60427,-3.25466 1.73955,-4.4005 l 0.0995,-0.842602 -1.16622,0.682512 c -2.38684,1.39686 -3.90985,2.82122 -5.22591,4.8874 -0.67701,1.06289 -1.87332,3.4566 -1.87332,3.74834 0,0.0963 -0.10464,0.17514 -0.23252,0.17514 -0.28631,0 -0.3129,-1.47033 -0.07,-3.87128 0.3815,-3.77117 1.37394,-6.719922 2.91027,-8.647082 l 0.45386,-0.56931 -1.02701,0.25591 c -4.44374,1.10726 -9.228031,4.313462 -12.206191,8.180002 -1.03281,1.34089 -2.30375,3.53491 -2.72137,4.69789 -0.22129,0.61624 -0.36464,0.84332 -0.45563,0.72176 -0.20813,-0.27805 -0.16123,-1.07919 0.17942,-3.06441 0.75665,-4.40962 1.96388,-7.389642 4.05782,-10.016632 0.83838,-1.0518 3.41756,-3.63869 3.72621,-3.73734 0.376831,-0.12044 -1.21854,0.0666 -2.08913,0.24495 -2.5704,0.52653 -5.59817,2.47479 -8.00392,5.15026 -1.98935,2.212372 -4.20452,5.401892 -5.69051,8.193512 -0.33582,0.63088 -0.69778,1.1476 -0.80435,1.14826 -0.26315,0.002 -0.25148,-0.11601 0.19656,-1.982 1.66819,-6.947712 3.93451,-11.325352 7.91698,-15.292522 1.13263,-1.12828 1.12993,-1.16082 -0.13526,-1.63038 -2.97816,-1.10529 -5.99265,0.93648 -9.62873,6.52169 -1.12953,1.73503 -3.20952,5.461442 -4.29234,7.689972 -0.93291,1.92 -1.14972,1.89252 -1.01177,-0.12825 0.87147,-12.766202 4.75244,-29.094672 8.35233,-35.140932 1.45558,-2.44474 6.07903,-6.83534 8.8115,-8.36772 2.95108,-1.65497 5.4709,-2.22201 7.919591,-1.78217 2.50338,0.44967 4.49826,2.22842 5.1586,4.5997 0.34896,1.25311 0.26127,4.19851 -0.13499,4.53396 -0.055,0.0466 -0.65871,-0.0749 -1.34149,-0.27004 -1.80788,-0.51663 -2.82524,-0.57601 -4.12242,-0.24064 -1.308781,0.33838 -2.083401,0.86435 -2.606831,1.77007 -0.81319,1.40709 -0.80565,3.03919 0.0243,5.2672 0.69904,1.8765 2.179581,4.04144 3.318791,4.85296 0.65062,0.46346 1.77929,0.93465 2.50725,1.0467 0.93383,0.14375 4.29503,1.08305 5.41776,1.51402 0.56449,0.21668 1.57757,0.71172 2.25128,1.10008 l 1.22492,0.70611 0.5177,-1.18269 c 0.79835,-1.82383 1.57999,-3.09531 2.47698,-4.02926 0.45058,-0.46914 1.1892,-1.50258 1.64137,-2.29652 1.59018,-2.79208 1.58521,-4.65941 -0.0133,-4.99906 -0.8541,-0.18147 -2.97476,0.835 -4.39575,2.10697 -1.35305,1.21116 -1.39567,1.04332 -0.35396,-1.39392 1.80665,-4.22695 5.04617,-8.40021 7.20867,-9.28644 1.568244,-0.6427 6.019984,-0.6471 7.081834,-0.007 1.78388,1.07534 3.62756,4.33911 4.23248,7.49251 0.12993,0.67729 0.27984,1.96959 0.33313,2.8718 0.0533,0.90221 0.20573,2.37854 0.33874,3.28075 0.22621,1.53433 0.27446,1.67098 0.74624,2.11375 0.76429,0.7173 1.54134,1.91832 2.32136,3.58792 0.38722,0.82882 0.70403,1.57101 0.70403,1.64932 0,0.0783 0.43597,-0.11945 0.96883,-0.43947 1.79207,-1.07625 4.20148,-1.94594 7.2952,-2.63325 0.78334,-0.17403 1.59865,-0.37521 1.81179,-0.44707 2.23669,-0.75408 4.70771,-4.32467 5.27802,-7.62666 0.66546,-3.85281 -2.66408,-6.17482 -6.959,-4.8532 -1.35053,0.41559 -1.6666,0.44432 -1.8003,0.16367 -0.22504,-0.47239 -0.28127,-2.99176 -0.0884,-3.95988 0.49539,-2.48638 2.63547,-4.5239 5.24369,-4.9924 3.57224,-0.64166 7.51184,0.9004 11.73599,4.59376 2.3739,2.07561 4.09014,4.04277 5.1945,5.95394 3.33326,5.76842 6.69875,19.462 7.9764,32.454512 0.3013,3.0639 0.30542,3.83057 0.0206,3.83057 -0.11864,0 -0.25837,-0.14387 -0.3105,-0.31972 -0.0521,-0.17584 -0.6779,-1.43072 -1.3906,-2.78863 -3.95877,-7.542652 -6.82505,-11.216892 -9.67783,-12.405832 -1.21981,-0.50838 -2.23543,-0.55216 -3.28658,-0.14169 -1.3821,0.53972 -1.37835,0.49186 -0.13655,1.74549 3.78209,3.81809 5.88298,7.7734 7.5867,14.283352 0.62515,2.3887 0.70958,2.90778 0.47297,2.90778 -0.0756,0 -0.73573,-1.01868 -1.46686,-2.26372 -3.60621,-6.141062 -7.12008,-9.832732 -10.9451,-11.498922 -1.41363,-0.61579 -2.09646,-0.80902 -3.27446,-0.9266 l -0.89677,-0.0895 1.04857,0.99192 c 4.2663,4.03582 5.84914,7.211622 6.83542,13.714512 0.33776,2.22693 0.35835,2.50498 0.15603,2.10639 l -0.13322,-0.26246 -0.0226,0.26246 c -0.0124,0.14435 -0.22727,-0.2395 -0.47746,-0.853 -2.4334,-5.96701 -8.56687,-11.142332 -15.14126,-12.775912 l -0.81578,-0.20269 0.37259,0.41991 c 1.34857,1.51991 2.40425,4.248642 2.90399,7.506332 0.23024,1.50092 0.27217,4.98388 0.0601,4.99451 -0.0853,0.004 -0.37297,-0.46948 -0.63935,-1.05279 -0.63408,-1.38848 -1.65016,-3.09064 -2.43128,-4.07294 -0.87299,-1.09784 -2.74748,-2.64778 -4.20051,-3.47322 l -1.22564,-0.696272 0.0956,0.774502 c 0.13907,1.12648 0.63385,2.38169 1.70032,4.3136 0.64193,1.16285 0.96322,1.91778 1.00918,2.37126 0.063,0.62111 0.0338,0.68923 -0.43943,1.02633 l -0.50686,0.36106 1.45881,2.43105 c 0.88336,1.47208 1.61225,2.52427 1.84777,2.66735 0.62368,0.3789 1.67994,0.56207 2.68566,0.46574 1.14797,-0.10995 3.51111,-0.68477 3.83486,-0.93281 0.13504,-0.10346 0.53143,-0.18811 0.88087,-0.18811 0.7412,0 1.17206,0.36095 1.4413,1.20744 0.0905,0.28436 0.29969,0.70479 0.46499,0.93428 0.37845,0.52545 0.38367,1.02424 0.0148,1.40993 -0.28114,0.29393 -0.27957,0.30916 0.0775,0.75462 0.31715,0.39565 0.36444,0.61105 0.36444,1.66013 0,1.08127 -0.036,1.23381 -0.34878,1.48021 -0.19183,0.15109 -0.62108,0.31729 -0.95388,0.36933 l -0.60511,0.0946 0.0933,-0.48691 c 0.12462,-0.65014 -0.11365,-1.18251 -0.47416,-1.05941 -0.91442,0.31221 -1.32998,0.23667 -2.40696,-0.43754 -1.07493,-0.67293 -1.73171,-0.89045 -2.26001,-0.7485 -0.28489,0.0766 -0.28744,0.1152 -0.0626,0.94956 0.31497,1.16899 0.57366,1.65989 1.12744,2.13948 0.67862,0.58771 0.65323,1.45615 -0.0819,2.80319 -0.45908,0.84117 -0.60702,1.00272 -0.91829,1.00272 -0.23262,0 -0.50557,-0.1504 -0.73162,-0.40315 -0.19831,-0.22172 -0.65875,-0.66077 -1.02321,-0.97567 l -0.66264,-0.57255 0.10368,-1.24862 c 0.11271,-1.35753 -0.0329,-2.05254 -0.651,-3.1073 -0.44184,-0.75397 -0.547,-0.82487 -1.74346,-1.17539 -1.06851,-0.31304 -1.60886,-0.34657 -3.09742,-0.19221 -0.86685,0.0899 -1.02918,0.0694 -1.42818,-0.18036 -0.4479,-0.28033 -0.451,-0.28042 -0.61632,-0.0189 -0.39009,0.61708 -1.24033,-0.061 -1.24033,-0.98912 0,-0.45165 0.10897,-0.67108 0.56146,-1.13056 1.02779,-1.0437 1.84257,-1.26233 3.07705,-0.82567 0.31686,0.11207 0.84255,0.1859 1.16819,0.16404 l 0.59208,-0.0397 -1.65267,-2.32933 -1.65267,-2.32933 h -0.89579 c -0.8473,0 -0.93147,-0.0302 -1.55515,-0.5582 l -0.65936,-0.5582 -0.26109,1.12711 c -0.36494,1.57541 -0.96513,3.12332 -1.77679,4.58234 -0.68639,1.23386 -0.69275,1.25817 -0.618,2.36215 0.15408,2.27587 1.33947,4.40521 3.7699,6.77194 3.3241,3.23699 3.96694,3.93854 4.56574,4.98272 1.06085,1.84993 0.7447,1.99141 -0.9295,0.41596 -1.50068,-1.41216 -2.92596,-2.4737 -4.27298,-3.18251 -1.22544,-0.64482 -3.60622,-1.58524 -3.73571,-1.4756 -0.10304,0.0872 0.61903,1.31434 2.15319,3.65925 1.28693,1.96703 2.01306,3.30331 2.27586,4.18823 0.20873,0.70287 0.15341,1.72436 -0.0972,1.79403 -0.0968,0.0269 -0.46344,-0.39458 -0.81484,-0.93662 -1.50334,-2.31891 -5.14794,-6.53402 -5.25585,-6.07858 -0.0301,0.12703 0.13236,1.21952 0.36102,2.42775 0.69171,3.65495 0.57149,5.13376 -0.50381,6.19726 -1.09535,1.08334 -1.96208,1.19122 -3.05102,0.37976 z m 2.22259,-0.12435 c 0.44526,-0.27306 0.78272,-0.63563 1.04776,-1.12573 0.51934,-0.96035 0.51431,-2.30695 -0.0189,-5.05757 -0.44349,-2.28783 -0.51039,-3.39017 -0.20529,-3.38254 0.43266,0.0108 3.53547,3.49408 5.12552,5.75396 1.00394,1.42687 1.24533,1.48115 0.80046,0.17999 -0.36008,-1.05316 -1.06199,-2.3021 -2.69055,-4.7874 -0.77089,-1.17642 -1.5253,-2.42148 -1.67647,-2.76679 -0.40907,-0.93437 -0.16093,-0.97474 1.64146,-0.26703 2.8014,1.09997 4.00727,1.82271 6.19468,3.7128 1.29121,1.11572 1.42392,1.19896 1.20717,0.75718 -0.40176,-0.81882 -1.69989,-2.28688 -3.68054,-4.16232 -1.95379,-1.85 -3.30619,-3.4332 -3.84979,-4.5068 -0.55381,-1.09377 -0.94052,-2.62961 -0.94052,-3.73535 0,-0.93375 0.0591,-1.14763 0.54914,-1.98705 0.9452,-1.61909 1.78247,-3.85088 2.02474,-5.397 0.0562,-0.35871 0.17514,-0.69036 0.26429,-0.73701 0.0891,-0.0466 0.35483,0.11064 0.5904,0.34953 0.81343,0.82486 1.72666,1.12413 2.4417,0.80017 0.27801,-0.12596 0.54159,-0.0422 0.5909,0.18768 0.0155,0.0722 0.78851,1.19444 1.71785,2.49391 0.92934,1.29947 1.66073,2.43625 1.62532,2.52618 -0.0915,0.23244 -1.72982,0.20984 -2.41733,-0.0334 -0.96641,-0.34184 -1.30977,-0.26366 -2.21767,0.50495 -0.87337,0.73937 -0.99842,1.07071 -0.64909,1.71979 0.21933,0.40752 0.3529,0.41846 0.65476,0.0536 l 0.23218,-0.28063 0.50709,0.36122 c 0.46603,0.33198 0.5703,0.35266 1.28798,0.25546 1.96372,-0.26597 3.92777,0.0794 4.78307,0.841 0.85995,0.76578 1.39016,2.53222 1.1835,3.94294 -0.12571,0.85817 0.0938,1.5909 0.47653,1.5909 0.0832,0 0.40186,0.29527 0.70812,0.65615 0.30625,0.36089 0.6213,0.65615 0.7001,0.65615 0.25356,0 1.22276,-1.9036 1.22276,-2.4016 0,-0.3362 -0.13049,-0.60314 -0.44355,-0.90739 -0.61631,-0.59896 -0.85856,-1.05903 -1.17748,-2.23616 -0.32986,-1.21748 -0.22686,-1.41117 0.74868,-1.40787 0.65924,0.002 1.30847,0.27062 2.32941,0.96299 0.57798,0.39196 0.84482,0.43144 1.88864,0.27941 0.60218,-0.0877 0.64265,-0.0724 0.83172,0.31402 0.10932,0.22341 0.16971,0.57375 0.13421,0.77853 -0.0572,0.3301 -0.0236,0.3657 0.29657,0.31389 0.58826,-0.0952 0.81724,-0.51643 0.81724,-1.50335 0,-1.33603 -0.25501,-1.72992 -1.42744,-2.20489 -0.93712,-0.37963 -1.03284,-0.39187 -2.44788,-0.313 -1.53779,0.0857 -2.32519,-0.0443 -2.32519,-0.38388 0,-0.1228 0.36689,-0.256 1.08145,-0.39261 1.00178,-0.19152 1.11509,-0.1904 1.53838,0.0153 0.43095,0.20939 0.50104,0.20859 1.23244,-0.0141 0.92345,-0.28112 1.30968,-0.16813 1.63389,0.478 l 0.21118,0.42085 0.17801,-0.37818 c 0.15086,-0.32049 0.12459,-0.47066 -0.17218,-0.98423 -0.1926,-0.33332 -0.45596,-0.87105 -0.58523,-1.19495 -0.33057,-0.82827 -0.79933,-0.95107 -1.89575,-0.49663 -1.67229,0.69313 -4.38408,1.0619 -5.65659,0.76923 -1.13517,-0.26108 -1.51604,-0.66646 -3.01896,-3.21324 -0.77111,-1.30669 -1.41162,-2.38272 -1.42336,-2.39119 -0.0117,-0.008 -0.30037,-0.055 -0.64139,-0.10329 -0.44428,-0.063 -0.55414,-0.0499 -0.38754,0.0462 0.28056,0.1618 0.0113,0.1817 -0.28782,0.0213 -0.24437,-0.13108 -0.12467,-0.2066 0.52034,-0.32831 0.33975,-0.0641 0.4024,-0.0518 0.23252,0.0455 -0.18955,0.1086 -0.16638,0.13358 0.12541,0.13522 0.19686,10e-4 0.31901,-0.0513 0.27146,-0.11644 -0.0476,-0.0651 0.1173,-0.17858 0.36637,-0.25209 0.96245,-0.28403 0.98173,-1.01634 0.0672,-2.55366 -0.78295,-1.3162 -1.57777,-3.0357 -1.83173,-3.96278 -0.23773,-0.86777 -0.35103,-2.116662 -0.20337,-2.241672 0.26764,-0.22657 3.0547,1.508732 4.46533,2.780242 1.55726,1.40368 2.15768,2.23787 3.90819,5.4298 l 0.25188,0.45931 0.01,-0.59054 c 0.0139,-0.83959 -0.26481,-3.26011 -0.54399,-4.72428 -0.42429,-2.22524 -1.38265,-4.468592 -2.59361,-6.071182 -0.75255,-0.99593 -0.58253,-1.08641 1.14563,-0.60969 5.87117,1.6196 11.13572,5.695682 14.10304,10.919272 0.83049,1.46196 0.87828,1.42289 0.52935,-0.43273 -1.01724,-5.40958 -2.74646,-8.681732 -6.43709,-12.180682 -0.87836,-0.83274 -1.373,-1.4011 -1.28454,-1.47599 0.24237,-0.20518 2.59259,0.11857 3.74645,0.5161 2.8584,0.98476 5.83301,3.35979 8.67119,6.923362 0.97396,1.22289 1.52648,2.03448 2.84785,4.18315 0.6658,1.08264 1.21211,1.92078 1.21403,1.86252 0.004,-0.12808 -0.17944,-0.81447 -0.79679,-2.97798 -1.54863,-5.427172 -3.97171,-9.635362 -7.46578,-12.965902 -0.79412,-0.75696 -0.85932,-0.93482 -0.45341,-1.23692 1.23351,-0.91804 3.18343,-1.09253 4.7568,-0.42566 1.8724,0.7936 4.32658,3.32635 6.48157,6.68907 0.91293,1.42456 2.47987,4.19867 3.78036,6.692732 0.45163,0.86612 0.82343,1.5045 0.82623,1.41863 0.0111,-0.33911 -0.48088,-5.063092 -0.70119,-6.733442 -0.63998,-4.85226 -1.72861,-10.75115 -2.69908,-14.62548 -0.16363,-0.65325 -0.48303,-1.9259 -0.70976,-2.82811 -0.8815,-3.50761 -2.7832,-8.59054 -4.09964,-10.9577 -0.98253,-1.76671 -3.13928,-4.18413 -5.5705,-6.24375 -3.01846,-2.55711 -5.66336,-3.86718 -8.51407,-4.21718 -3.27934,-0.40264 -6.15016,1.19624 -7.1876,4.00306 -0.27725,0.75011 -0.35008,1.25899 -0.35138,2.45536 -9.3e-4,0.83003 0.0499,1.66445 0.1129,1.85427 l 0.11455,0.34512 1.04805,-0.3362 c 1.49175,-0.47853 3.77374,-0.49735 4.96669,-0.041 1.02784,0.39323 2.0278,1.31939 2.43689,2.25705 0.40349,0.92485 0.40671,2.93745 0.007,4.24274 -0.82435,2.69052 -2.83434,5.42156 -4.63906,6.30322 -0.35099,0.17147 -1.44036,0.49716 -2.42081,0.72375 -3.50166,0.80925 -5.84973,1.67603 -7.56373,2.79214 -0.46457,0.30251 -0.87436,0.48282 -0.94438,0.41554 -0.068,-0.0654 -0.31716,-0.59129 -0.55361,-1.1687 -0.68494,-1.6726 -1.67511,-3.35138 -2.45247,-4.15801 -0.71439,-0.7413 -0.72041,-0.75588 -0.94902,-2.29653 -0.12654,-0.85277 -0.27266,-2.25913 -0.32472,-3.12525 -0.20902,-3.47765 -0.8151,-5.58062 -2.3186,-8.04506 -0.7877,-1.29114 -1.5905,-2.16247 -2.26405,-2.45734 -0.74769,-0.32733 -2.55249,-0.46967 -4.23139,-0.33373 -1.87961,0.1522 -2.818084,0.50808 -3.976574,1.508 -1.6794,1.44953 -4.04727,4.89137 -5.1796,7.52885 -0.37588,0.87552 -0.73783,1.66805 -0.80434,1.76118 -0.0665,0.0931 0.3891,-0.22894 1.01247,-0.71571 1.46843,-1.14666 2.83626,-1.73446 3.81812,-1.64077 0.86596,0.0826 1.40621,0.47626 1.63322,1.18999 0.45477,1.42975 -0.86738,4.51888 -2.79474,6.52981 -0.84938,0.88621 -1.85402,2.53569 -2.55332,4.19221 -0.61572,1.45854 -0.53007,1.42115 -1.65264,0.72155 -1.73008,-1.07821 -4.50048,-2.07309 -7.67964,-2.75784 -1.83885,-0.39606 -2.26971,-0.59574 -3.4152,-1.58275 -2.201651,-1.89704 -3.655601,-4.95913 -3.673071,-7.73561 -0.007,-1.13784 0.0443,-1.40905 0.38704,-2.04005 0.54271,-0.99912 1.23259,-1.6229 2.273471,-2.05562 0.79229,-0.32939 1.03635,-0.36525 2.43085,-0.35722 1.27054,0.007 1.73925,0.0696 2.5987,0.34528 0.57672,0.185 1.08523,0.28615 1.13003,0.22478 0.19657,-0.26925 0.255,-2.74873 0.0843,-3.57841 -0.36491,-1.77396 -1.49331,-3.33953 -3.00204,-4.16505 -4.102091,-2.24454 -10.104941,0.008 -15.612831,5.85756 -2.39434,2.54305 -3.58551,4.55699 -5.0324,8.50841 -2.52725,6.9019 -4.77576,17.33139 -5.73261,26.59021 -0.13054,1.263092 -0.27694,2.678412 -0.32534,3.145162 -0.0484,0.46674 -0.0565,0.82106 -0.0181,0.78738 0.0384,-0.0337 0.57414,-1.03563 1.19044,-2.22655 3.88343,-7.504162 6.89869,-11.340472 9.98398,-12.702612 0.62694,-0.27679 1.00286,-0.34702 1.86979,-0.34932 0.94533,-0.003 1.21201,0.0552 2.07045,0.44808 0.54195,0.24803 1.02087,0.52929 1.06427,0.62503 0.0434,0.0957 -0.23304,0.45639 -0.6143,0.80145 -0.89808,0.81282 -2.68026,2.8566 -3.51011,4.02534 -2.10682,2.96722 -3.66548,6.739532 -4.9071,11.876312 -0.0436,0.18044 0.46898,-0.55773 1.13909,-1.64037 2.31117,-3.73396 4.36648,-6.241452 6.7766,-8.267492 2.38467,-2.00465 4.6254,-3.0654 7.0752,-3.34936 1.722921,-0.19971 1.796841,-0.0883 0.65752,0.99095 -3.55366,3.36631 -4.94092,5.46165 -6.08278,9.187532 -0.44142,1.44037 -1.12581,4.57956 -1.10035,5.04719 0.006,0.10827 0.3086,-0.33464 0.67268,-0.98422 2.41582,-4.31022 6.63655,-8.074502 11.252521,-10.035612 2.10716,-0.89524 4.65038,-1.57545 4.65038,-1.24379 0,0.0396 -0.34049,0.55631 -0.75664,1.14826 -1.21659,1.73053 -2.03854,3.778072 -2.48657,6.194242 -0.20003,1.07876 -0.47671,3.70965 -0.46922,4.46182 l 0.005,0.52492 0.35597,-0.72482 c 1.53698,-3.12959 3.38475,-5.28311 5.88685,-6.86094 1.56585,-0.987422 2.26609,-1.327882 2.43573,-1.184272 0.0877,0.0742 0.0799,0.5487 -0.0199,1.222742 -0.17906,1.20895 -0.86108,2.88315 -1.93659,4.75386 -0.37598,0.65398 -0.72767,1.38791 -0.78153,1.63094 -0.13636,0.61533 0.23557,1.05967 0.982,1.17318 0.95271,0.14488 1.11581,0.27835 0.50061,0.40967 -0.50966,0.1088 -0.61341,0.23961 -1.95714,2.46785 -1.52031,2.52103 -1.94525,2.9728 -3.03159,3.22299 -1.27831,0.29441 -4.06439,-0.0888 -5.66186,-0.77872 -0.35675,-0.15407 -0.7882,-0.28013 -0.95879,-0.28013 -0.41163,0 -0.9024,0.46232 -1.028801,0.96915 -0.0561,0.22482 -0.23393,0.59289 -0.39525,0.81794 -0.30254,0.42206 -0.39837,1.29197 -0.15628,1.41863 0.0754,0.0394 0.22444,-0.10698 0.33128,-0.32535 0.298631,-0.61034 0.659791,-0.70992 1.569911,-0.43286 0.7314,0.22266 0.80149,0.22346 1.23245,0.0141 0.42328,-0.20566 0.53659,-0.20678 1.53838,-0.0153 1.135,0.217 1.36213,0.43556 0.74376,0.71573 -0.23264,0.1054 -0.81084,0.1254 -1.85872,0.0643 -1.46471,-0.0854 -1.55695,-0.0744 -2.4913,0.29594 -0.533641,0.21154 -1.069561,0.52424 -1.190921,0.69488 -0.28296,0.39788 -0.41606,2.21262 -0.18865,2.57234 0.0936,0.14811 0.36988,0.32821 0.61387,0.40022 0.412891,0.12185 0.438871,0.10985 0.374951,-0.17321 -0.0378,-0.16728 0.0163,-0.52211 0.12015,-0.78851 0.1867,-0.47892 0.19605,-0.48332 0.82967,-0.39129 1.08929,0.15822 1.31938,0.11274 2.15568,-0.42614 1.08949,-0.70204 1.38481,-0.81788 2.07902,-0.81552 0.9922,0.003 1.06663,0.10376 0.84248,1.13633 -0.23299,1.07328 -0.6687,1.95173 -1.20181,2.42303 -0.6563,0.5802 -0.65406,1.23066 0.008,2.39638 0.31168,0.54859 0.63057,0.99743 0.70864,0.99743 0.0781,0 0.26728,-0.15491 0.42046,-0.34425 0.15318,-0.18933 0.56833,-0.60361 0.92255,-0.9206 l 0.64404,-0.57636 -0.0836,-1.2836 c -0.0712,-1.09413 -0.0322,-1.4213 0.2642,-2.21639 0.46891,-1.25781 0.987,-1.76107 2.20448,-2.14136 1.03108,-0.32207 2.12057,-0.38643 3.4632,-0.20458 0.71971,0.0975 0.82125,0.077 1.2958,-0.26102 l 0.5149,-0.36679 0.29502,0.319 c 0.28896,0.31245 0.29976,0.31377 0.52561,0.0643 0.56099,-0.61977 -0.0918,-1.85464 -1.26263,-2.38843 -0.4575,-0.20858 -0.58674,-0.21496 -1.17676,-0.0581 -0.36454,0.0969 -1.13366,0.20294 -1.70914,0.23563 -0.90024,0.0511 -1.04634,0.029 -1.04634,-0.15868 0,-0.11996 0.81053,-1.36323 1.80118,-2.76282 1.57854,-2.23017 1.83594,-2.52895 2.08248,-2.41725 0.72934,0.33044 1.49661,0.0984 2.34231,-0.70853 0.37021,-0.35322 0.61907,-0.49624 0.71464,-0.4107 0.0806,0.0722 0.26608,0.66271 0.41208,1.31229 0.34857,1.5509 1.15318,3.58273 1.95024,4.92477 l 0.641054,1.07937 -0.17519,1.37748 c -0.343854,2.70369 -1.416014,4.47941 -4.417394,7.31614 -2.08249,1.96824 -2.81208,2.72241 -3.36425,3.47759 -1.12221,1.53481 -0.98512,1.55596 0.71847,0.11082 0.90662,-0.76909 2.16815,-1.70251 2.80338,-2.07427 1.47653,-0.86412 4.711924,-2.16556 4.928274,-1.98241 0.26268,0.22238 -0.16271,1.05306 -1.940964,3.7902 -1.79131,2.75725 -2.51134,4.15331 -2.68607,5.20801 l -0.1087,0.65615 1.03002,-1.44352 c 1.84364,-2.58377 4.780724,-5.85716 5.204414,-5.80033 0.30332,0.0407 0.25969,0.65581 -0.25787,3.63503 -0.65058,3.74503 -0.32414,5.13626 1.42047,6.05355 0.63248,0.33255 0.85425,0.31099 1.61787,-0.1573 z M 80.507946,115.7533 c -0.43459,-0.1969 -0.65864,-0.12342 -0.8805,0.28881 -0.252671,0.46948 -0.246241,0.47138 0.52391,0.15462 0.67369,-0.27709 0.68705,-0.2937 0.35659,-0.44343 z m 48.226894,0.31946 c -0.26846,-0.4313 -0.44858,-0.49997 -0.87751,-0.33452 -0.36986,0.14266 -0.36646,0.14765 0.29575,0.4346 0.36845,0.15965 0.693,0.27141 0.72122,0.24835 0.0282,-0.0231 -0.0345,-0.17985 -0.13946,-0.34843 z m -44.788034,-0.0948 c 0,-0.14887 -1.33825,-0.3226 -1.56622,-0.20333 -0.28742,0.15038 0.1841,0.31544 0.90742,0.31765 0.36234,10e-4 0.6588,-0.0503 0.6588,-0.11432 z m 41.986244,-5.3e-4 c 0.35948,-0.19283 -0.0757,-0.30018 -0.82924,-0.20452 -0.38254,0.0486 -0.65724,0.14073 -0.61045,0.20483 0.10852,0.14864 1.16244,0.14841 1.43969,-2.7e-4 z m -33.731814,-7.71262 c -0.10657,-0.0364 -0.28096,-0.0364 -0.38753,0 -0.10657,0.0364 -0.0194,0.0662 0.19377,0.0662 0.21314,0 0.30033,-0.0298 0.19376,-0.0662 z m 78.887194,-4.24368 c 0,-0.18044 0.0352,-0.25426 0.0782,-0.16404 0.043,0.0902 0.043,0.23786 0,0.32808 -0.043,0.0902 -0.0782,0.0164 -0.0782,-0.16404 z M 36.236285,103.09042 c -0.3891,-1.51011 -0.47469,-2.02586 -0.3535,-2.12995 0.14573,-0.12516 0.22588,0.12529 0.48142,1.50446 0.22142,1.19496 0.13177,1.63333 -0.12792,0.62549 z m 134.982685,0.18935 c 0,-0.38778 0.25999,-1.78918 0.39352,-2.12117 0.0381,-0.0948 0.12755,-0.14189 0.19872,-0.10465 0.12199,0.0638 -0.35348,2.41515 -0.51624,2.55294 -0.0418,0.0354 -0.076,-0.11182 -0.076,-0.32712 z M 35.681795,100.01866 c -0.0491,-0.108272 -0.0217,-0.196852 0.0609,-0.196852 0.0826,0 0.15015,0.0886 0.15015,0.196852 0,0.10826 -0.0274,0.19684 -0.0609,0.19684 -0.0335,0 -0.10108,-0.0886 -0.15015,-0.19684 z M 171.88508,99.362508 c -0.008,-0.25262 0.0475,-0.45931 0.12429,-0.45931 0.0768,0 0.13967,0.20669 0.13967,0.45931 0,0.25262 -0.0559,0.4593 -0.12429,0.4593 -0.0684,0 -0.13121,-0.20668 -0.13967,-0.4593 z m -136.288955,0.0656 c -0.02,-0.10826 -0.0586,-0.31495 -0.0857,-0.4593 -0.16263,-0.86377 -0.21316,-1.90283 -0.0925,-1.90283 0.17338,0 0.37044,1.47457 0.2806,2.09967 -0.0363,0.25262 -0.0824,0.37073 -0.10233,0.26246 z m 136.397905,-0.85298 c 0,-0.10827 0.0676,-0.19685 0.15015,-0.19685 0.0826,0 0.10999,0.0886 0.0609,0.19685 -0.0491,0.10826 -0.11664,0.19684 -0.15015,0.19684 -0.0335,0 -0.0609,-0.0886 -0.0609,-0.19684 z m 0.17047,-1.97501 c 0.0135,-0.79767 0.21623,-1.80054 0.29046,-1.43697 0.0845,0.41405 -0.0389,2.11931 -0.16099,2.22435 -0.0901,0.0775 -0.13908,-0.22038 -0.12947,-0.78738 z M 35.214685,95.606048 c -0.15625,-0.66139 -0.11364,-2.47696 0.0581,-2.47696 0.094,0 0.15501,0.56866 0.15501,1.44353 0,0.79394 -0.0262,1.44353 -0.0581,1.44353 -0.032,0 -0.10172,-0.18455 -0.15501,-0.4101 z m 137.089375,-3.32996 c 0,-0.65615 0.0638,-1.11545 0.15501,-1.11545 0.0912,0 0.15501,0.4593 0.15501,1.11545 0,0.65615 -0.0638,1.11546 -0.15501,1.11546 -0.0912,0 -0.15501,-0.45931 -0.15501,-1.11546 z M 35.117805,90.380998 c 0,-0.57315 0.0698,-1.07859 0.15501,-1.1232 0.0987,-0.0516 0.15501,0.32672 0.15501,1.0421 0,0.66131 -0.0637,1.1232 -0.15501,1.1232 -0.0903,0 -0.15501,-0.43485 -0.15501,-1.0421 z m 137.130365,-1.01741 c -0.17204,-0.14564 -0.11517,-2.16374 0.0584,-2.07291 0.0867,0.0453 0.12312,0.12958 0.081,0.18722 -0.0421,0.0576 -0.0204,0.49928 0.0482,0.98144 0.11565,0.81324 0.0543,1.10903 -0.18761,0.90425 z M 35.409715,87.551808 c -0.0892,-0.33793 0.22813,-2.38752 0.39054,-2.52211 0.13217,-0.10952 -0.0217,1.61971 -0.20887,2.34764 -0.086,0.3346 -0.12859,0.37547 -0.18167,0.17447 z m 136.584315,-0.91861 c 0,-0.10826 0.0274,-0.19684 0.0609,-0.19684 0.0335,0 0.10108,0.0886 0.15015,0.19684 0.0491,0.10827 0.0217,0.19685 -0.0609,0.19685 -0.0826,0 -0.15015,-0.0886 -0.15015,-0.19685 z m -0.15501,-0.87486 c 0,-0.6476 0.0766,-0.62674 0.20083,0.0547 0.0497,0.2726 0.0249,0.49211 -0.0556,0.49211 -0.0799,0 -0.14527,-0.24606 -0.14527,-0.54679 z m -0.31544,-2.08437 c -0.003,-0.0325 -0.10623,-0.53148 -0.22946,-1.10889 -0.42721,-2.00169 -0.23239,-2.26273 0.23207,-0.31095 0.18173,0.76368 0.23769,1.27679 0.1477,1.35422 -0.0797,0.0686 -0.14733,0.0981 -0.15031,0.0656 z m -135.515145,-0.6824 c 0.0473,-0.30675 0.24584,-1.0892 0.44112,-1.73879 0.27259,-0.90679 0.33646,-1.02869 0.27503,-0.52492 -0.13031,1.0686 -0.55474,2.82144 -0.68317,2.82144 -0.0655,0 -0.0803,-0.25098 -0.033,-0.55773 z m 134.918485,-2.3514 c -0.01,-0.12041 -0.0581,-0.3271 -0.10719,-0.45931 -0.0846,-0.22784 -0.08,-0.22819 0.0879,-0.007 0.0974,0.12858 0.14566,0.33526 0.10719,0.4593 -0.063,0.20318 -0.0717,0.20384 -0.0879,0.007 z M 36.832765,79.781518 c -0.0163,-0.48125 0.56823,-2.43124 1.22027,-4.07085 0.33777,-0.84937 0.64494,-1.69194 0.68259,-1.87238 0.10027,-0.48051 1.47246,-3.49125 1.97373,-4.33059 0.23707,-0.39697 0.57026,-1.01704 0.74041,-1.37792 0.40089,-0.8503 2.44152,-4.24819 2.71283,-4.5172 0.11486,-0.11389 0.25564,-0.31814 0.31283,-0.45388 0.0572,-0.13575 0.56577,-0.84439 1.13019,-1.57476 1.30572,-1.68965 1.23837,-1.60545 2.10697,-2.63396 0.40497,-0.47953 0.73631,-0.91688 0.73631,-0.97189 0,-0.055 0.19703,-0.27364 0.43783,-0.48583 0.24081,-0.21219 0.81211,-0.79917 1.26956,-1.3044 0.91592,-1.01161 2.32992,-2.40248 3.40803,-3.3523 2.95573,-2.604 4.56976,-3.93096 4.78139,-3.93096 0.0808,0 0.34867,-0.19454 0.59527,-0.432318 0.24661,-0.23777 1.01341,-0.79645 1.704,-1.2415 0.6906,-0.44505 1.37455,-0.90985 1.5199,-1.0329 0.14534,-0.12304 0.79832,-0.52831 1.45106,-0.90059 0.65274,-0.37228 2.13715,-1.21879 3.29868,-1.88114 1.16154,-0.66235 2.18103,-1.20428 2.26553,-1.20428 0.0845,0 0.32056,-0.11114 0.52455,-0.24698 0.43461,-0.28942 4.88433,-2.24639 5.10778,-2.24639 0.0837,0 0.65599,-0.21203 1.27174,-0.47118 1.11463,-0.46912 4.039171,-1.47005 5.072361,-1.73604 0.2984,-0.0768 1.17035,-0.31867 1.93766,-0.53745 2.18448,-0.62286 5.41155,-1.31519 5.56029,-1.19289 0.14241,0.11708 -0.64391,0.34067 -1.68497,0.47911 -0.34103,0.0453 -0.72968,0.12986 -0.86368,0.18779 -0.13399,0.0579 -1.06439,0.28574 -2.06754,0.50624 -1.00315,0.2205 -2.04449,0.48595 -2.31408,0.58987 -0.74965,0.28899 -4.874691,1.64963 -5.001161,1.64963 -0.40959,0 -4.74217,1.926 -8.13469,3.61619 -8.69764,4.33324 -16.23206,10.505788 -22.2801,18.252878 -0.19686,0.25217 -0.53929,0.73484 -0.76094,1.0726 -0.22165,0.33776 -0.58057,0.85032 -0.7976,1.13902 -0.47049,0.62587 -0.53691,0.72923 -2.17456,3.38362 -0.70286,1.13923 -1.47544,2.52699 -1.71686,3.08391 -0.24142,0.55692 -0.56221,1.2488 -0.71287,1.5375 -0.27674,0.53031 -0.84336,1.83599 -1.42372,3.28075 -0.40343,1.0043 -1.08483,3.05113 -1.35431,4.06813 -0.11475,0.43306 -0.27979,0.93501 -0.36675,1.11545 -0.15089,0.31311 -0.15855,0.31484 -0.16793,0.0379 z m 133.800715,-0.24495 c -0.0991,-0.21091 -0.28921,-0.79685 -0.42247,-1.30208 -0.48425,-1.83587 -2.26756,-6.4395 -2.89758,-7.48011 -0.13109,-0.21653 -0.32759,-0.6299 -0.43665,-0.91861 -0.36213,-0.95862 -3.04331,-5.38654 -4.48959,-7.41449 -4.9773,-6.97909 -12.56253,-13.67131 -20.77565,-18.329768 -0.63943,-0.36269 -1.68577,-0.91365 -2.32519,-1.22437 -2.76491,-1.34356 -4.48457,-2.1382 -5.42545,-2.50708 -0.55417,-0.21726 -1.39124,-0.5617 -1.86015,-0.76541 -0.46891,-0.20372 -1.30598,-0.50332 -1.86015,-0.66577 -0.55417,-0.16246 -1.28661,-0.39815 -1.62764,-0.52375 -2.29577,-0.84555 -5.60044,-1.69314 -10.74691,-2.75641 -0.28384,-0.0586 -0.56286,-0.15072 -0.62005,-0.20462 -0.0572,-0.0539 0.009,-0.0638 0.14748,-0.022 0.13829,0.0418 0.59171,0.11443 1.00758,0.16144 1.72908,0.19546 7.04278,1.53145 10.52173,2.64542 2.30265,0.73731 7.19526,2.69033 8.25931,3.29692 0.28769,0.16401 0.84903,0.43941 1.2474,0.612 0.39838,0.1726 1.31718,0.64371 2.04178,1.04691 0.7246,0.40321 1.40125,0.7331 1.50367,0.7331 0.10242,0 0.242,0.0759 0.31018,0.16855 0.13929,0.18939 1.65809,1.14375 1.82021,1.14375 0.11197,0 1.29714,0.75808 1.55747,0.99622 0.0861,0.0788 0.73205,0.51429 1.43542,0.96781 0.70337,0.45353 1.27885,0.87229 1.27885,0.93059 0,0.0583 0.12843,0.14049 0.2854,0.18267 0.29914,0.0804 5.09879,4.030798 6.54511,5.387038 0.46181,0.43306 1.20257,1.17123 1.64612,1.64037 0.44356,0.46915 0.97987,1.03016 1.19182,1.24669 0.96921,0.99016 1.18245,1.22426 1.18245,1.29813 0,0.0846 1.02461,1.32153 1.36907,1.65281 0.28864,0.27759 1.80703,2.30843 2.25798,3.02002 0.20582,0.32479 0.55381,0.81293 0.7733,1.08475 0.51685,0.64009 2.57522,3.97341 2.57522,4.17033 0,0.083 0.27304,0.63241 0.60675,1.22081 0.33372,0.58841 0.65716,1.21747 0.71877,1.39791 0.0616,0.18044 0.30822,0.69213 0.54802,1.13709 0.48789,0.9053 1.89176,4.67563 2.64772,7.11091 0.31319,1.00892 0.31834,1.52136 0.009,0.86226 z M 89.033166,35.69196 c 0.1119,-0.0379 0.2456,-0.0332 0.29711,0.0104 0.0515,0.0436 -0.0401,0.0746 -0.20346,0.0689 -0.18058,-0.006 -0.21731,-0.0374 -0.0936,-0.0793 z m 0.61036,-0.1285 c 0.10657,-0.0364 0.28096,-0.0364 0.38753,0 0.10657,0.0364 0.0194,0.0662 -0.19376,0.0662 -0.21315,0 -0.30034,-0.0298 -0.19377,-0.0662 z m 1.22642,-0.24245 c 0.76374,-0.20385 2.81489,-0.40351 2.65208,-0.25815 -0.14151,0.12634 -2.20674,0.44457 -2.83216,0.43641 -0.43083,-0.006 -0.41758,-0.0187 0.18008,-0.17826 z m 23.808134,-0.0899 c -0.4476,-0.0691 -0.81382,-0.1866 -0.81382,-0.2611 0,-0.0757 0.1568,-0.10213 0.35526,-0.06 0.19539,0.0415 0.75539,0.1153 1.24446,0.16396 0.48906,0.0487 0.92623,0.13921 0.9715,0.20121 0.10275,0.14075 -0.68878,0.12089 -1.7574,-0.0441 z M 94.022636,34.94394 c 0,-0.0277 0.17439,-0.0785 0.38753,-0.11303 0.21314,-0.0345 0.38753,-0.0119 0.38753,0.0503 0,0.0622 -0.17439,0.11303 -0.38753,0.11303 -0.21314,0 -0.38753,-0.0226 -0.38753,-0.0503 z m 18.911544,-0.0627 c 0,-0.0622 0.17439,-0.0848 0.38754,-0.0503 0.21314,0.0345 0.38753,0.0854 0.38753,0.11303 0,0.0277 -0.17439,0.0503 -0.38753,0.0503 -0.21315,0 -0.38754,-0.0509 -0.38754,-0.11303 z m -17.954534,-0.0847 c 0.0432,-0.0366 0.35132,-0.0925 0.68464,-0.12413 0.33332,-0.0317 0.97225,-0.0923 1.41985,-0.13482 0.4476,-0.0425 0.81382,-0.0244 0.81382,0.0402 0,0.0646 -0.36622,0.15471 -0.81382,0.20023 -0.98181,0.0998 -2.21336,0.11065 -2.10449,0.0185 z m 15.125554,-0.0304 c -0.49356,-0.0262 -0.89132,-0.10987 -0.89132,-0.18745 0,-0.1694 2.32322,-0.0192 2.54996,0.16488 0.0898,0.0729 -0.0312,0.10986 -0.31003,0.0947 -0.2515,-0.0136 -0.85838,-0.0461 -1.34861,-0.0722 z m 2.01517,0.0101 c 0.10657,-0.0364 0.28096,-0.0364 0.38753,0 0.10657,0.0364 0.0194,0.0662 -0.19377,0.0662 -0.21314,0 -0.30033,-0.0298 -0.19376,-0.0662 z M 98.828026,34.55036 c 0,-0.0277 0.17439,-0.0785 0.38754,-0.11303 0.21314,-0.0345 0.38753,-0.0119 0.38753,0.0503 0,0.0622 -0.17439,0.11303 -0.38753,0.11303 -0.21315,0 -0.38754,-0.0226 -0.38754,-0.0503 z m 1.08509,-0.0778 c 0,-0.0813 0.530684,-0.1343 1.343454,-0.1343 0.73888,0 1.31437,0.0214 1.27884,0.0476 -0.17442,0.1285 -2.622294,0.20945 -2.622294,0.0867 z m 8.215674,0.0151 c 0,-0.0622 0.17439,-0.0848 0.38753,-0.0503 0.21314,0.0345 0.38753,0.0854 0.38753,0.11303 0,0.0277 -0.17439,0.0503 -0.38753,0.0503 -0.21314,0 -0.38753,-0.0509 -0.38753,-0.11303 z m -2.9788,-0.1151 c 0.45046,-0.0266 1.14802,-0.0263 1.55013,6.2e-4 0.40211,0.0269 0.0336,0.0487 -0.81901,0.0483 -0.85257,-3.4e-4 -1.18158,-0.0224 -0.73112,-0.049 z"
       id="path24" />
  </g>
</svg>
